<?xml version="1.0" encoding="UTF-8"?>
<svg version="1.1" xmlns="http://www.w3.org/2000/svg" width="225" height="225">
<path d="M0 0 C74.25 0 148.5 0 225 0 C225 74.25 225 148.5 225 225 C150.75 225 76.5 225 0 225 C0 150.75 0 76.5 0 0 Z " fill="#0F0F0F" transform="translate(0,0)"/>
<path d="M0 0 C3.44483816 1.59230829 4.42094844 4.77384968 5.921875 8.06640625 C6.994375 10.35578125 8.066875 12.64515625 9.171875 15.00390625 C0.921875 15.00390625 -7.328125 15.00390625 -15.828125 15.00390625 C-15.828125 10.71390625 -15.828125 6.42390625 -15.828125 2.00390625 C-13.70375 1.85953125 -11.579375 1.71515625 -9.390625 1.56640625 C-6.03525036 1.33837108 -2.94574382 0.00629432 0 0 Z " fill="#969696" transform="translate(67.828125,17.99609375)"/>
<path d="M0 0 C2.80639648 -0.35644531 2.80639648 -0.35644531 6.37109375 -0.328125 C7.66853516 -0.32296875 8.96597656 -0.3178125 10.30273438 -0.3125 C10.98295654 -0.3021875 11.66317871 -0.291875 12.36401367 -0.28125 C14.39846669 -0.25058828 16.4321375 -0.24032357 18.46679688 -0.234375 C26.02631338 -0.17482194 33.4870038 0.1515198 41 1 C41 1.66 41 2.32 41 3 C41.66 3.66 42.32 4.32 43 5 C28.48 5.33 13.96 5.66 -1 6 C-1.33 5.01 -1.66 4.02 -2 3 C-1.34 2.01 -0.68 1.02 0 0 Z " fill="#7F7F7F" transform="translate(95,0)"/>
</svg>
