<?xml version="1.0" encoding="UTF-8"?>
<!DOCTYPE svg PUBLIC "-//W3C//DTD SVG 1.1//EN" "http://www.w3.org/Graphics/SVG/1.1/DTD/svg11.dtd">
<svg xmlns="http://www.w3.org/2000/svg" version="1.1" width="360px" height="120px" style="shape-rendering:geometricPrecision; text-rendering:geometricPrecision; image-rendering:optimizeQuality; fill-rule:evenodd; clip-rule:evenodd" xmlns:xlink="http://www.w3.org/1999/xlink">
<g><path style="opacity:0.956" fill="#fefffe" d="M -0.5,92.5 C -0.5,91.5 -0.5,90.5 -0.5,89.5C 8.25778,60.1433 16.2578,30.4767 23.5,0.5C 42.1696,0.333386 60.8363,0.500053 79.5,1C 94.5548,3.92577 101.888,13.0924 101.5,28.5C 100.425,48.4671 93.4252,65.9671 80.5,81C 72.8498,87.8892 63.8498,91.8892 53.5,93C 35.4264,93.8188 17.4264,93.6521 -0.5,92.5 Z M 45.5,29.5 C 52.8409,29.3337 60.1742,29.5003 67.5,30C 69.9741,32.0411 70.9741,34.7077 70.5,38C 69.5895,60.0685 58.2562,68.9019 36.5,64.5C 39.3438,52.7913 42.3438,41.1246 45.5,29.5 Z"/></g>
<g><path style="opacity:0.955" fill="#fefffe" d="M 117.5,0.5 C 126.839,0.333546 136.173,0.500212 145.5,1C 151.795,14.4251 157.962,27.9251 164,41.5C 167.661,27.857 171.161,14.1903 174.5,0.5C 183.839,0.333546 193.173,0.500212 202.5,1C 203.022,1.5613 203.355,2.22797 203.5,3C 195.262,33.1207 187.262,63.2874 179.5,93.5C 169.833,93.5 160.167,93.5 150.5,93.5C 145.163,79.6647 139.329,65.9981 133,52.5C 129.168,65.8277 125.335,79.161 121.5,92.5C 110.682,101.408 99.6817,110.074 88.5,118.5C 87.914,118.291 87.414,117.957 87,117.5C 96.2297,78.3015 106.396,39.3015 117.5,0.5 Z"/></g>
<g><path style="opacity:0.949" fill="#fefffe" d="M 210.5,0.5 C 220.083,0.181581 229.583,0.514915 239,1.5C 237.554,10.1179 235.387,18.6179 232.5,27C 232.833,27.1667 233.167,27.3333 233.5,27.5C 242.682,18.4839 252.016,9.65053 261.5,1C 273.162,0.500136 284.829,0.333469 296.5,0.5C 294.88,4.64238 292.214,8.14238 288.5,11C 275.167,23 261.833,35 248.5,47C 256.46,61.0862 264.294,75.2529 272,89.5C 272.667,90.5 272.667,91.5 272,92.5C 260.91,93.6533 249.743,93.82 238.5,93C 233.206,83.5799 228.04,74.0799 223,64.5C 220.333,73.8333 217.667,83.1667 215,92.5C 204.262,101.74 193.096,110.407 181.5,118.5C 180.28,118.113 179.613,117.28 179.5,116C 189.915,77.5034 200.249,39.0034 210.5,0.5 Z"/></g>
</svg>
